<svg xmlns="http://www.w3.org/2000/svg" viewBox="0 0 1600 180" fill="none">
  <g stroke="#214C36" stroke-width="1.4" stroke-linecap="round" stroke-linejoin="round">
    <path d="M0 142C124 115 226 118 342 137C471 158 577 157 698 126C827 93 924 94 1052 126C1184 159 1305 157 1600 104"/>
    <path d="M0 158C124 131 226 134 342 153C471 174 577 173 698 142C827 109 924 110 1052 142C1184 175 1305 173 1600 120"/>
    <path d="M71 132L99 93L127 132M99 93V71M257 130L281 100L305 130M281 100V82M1341 134L1371 94L1401 134M1371 94V70"/>
    <path d="M420 148C443 121 465 121 488 148M510 147C535 112 560 112 585 147M1102 145C1129 108 1156 108 1183 145"/>
    <path d="M742 125V85M730 99L742 85L754 99M871 117V76M859 90L871 76L883 90"/>
  </g>
</svg>
